<svg fill="#f56565" width="100%" height="100%" xmlns="http://www.w3.org/2000/svg" viewBox="5.3 4.5 90.4 90.3">
  <path d="M50.4 72.4c-12.5 0-22.7-10.2-22.7-22.7S37.9 27 50.4 27s22.7 10.2 22.7 22.7-10.2 22.7-22.7 22.7zm0-33.4c-5.9 0-10.7 4.8-10.7 10.7s4.8 10.7 10.7 10.7 10.7-4.8 10.7-10.7S56.3 39 50.4 39z"></path>
  <circle cx="75.7" cy="23.7" r="6.7"></circle>
  <path d="M50.4 94.8c-24.9 0-45.1-20.2-45.1-45.1S25.5 4.5 50.4 4.5c6.7 0 13.2 1.4 19.3 4.3l-5.1 10.9c-4.4-2.1-9.2-3.2-14.1-3.2-18.2 0-33.1 14.8-33.1 33.1s14.8 33.1 33.1 33.1 33.1-14.8 33.1-33.1c0-5.4-1.3-10.5-3.7-15.3l10.7-5.6c3.3 6.4 5.1 13.6 5.1 20.8-.2 25.1-20.4 45.3-45.3 45.3z"></path>
</svg>
